<svg width="33" height="40" viewBox="0 0 33 40" fill="none" xmlns="http://www.w3.org/2000/svg">
<path d="M17.7925 1.05256C17.0483 0.406309 15.9321 0.406309 15.1879 1.05256C5.63126 9.47339 0.833344 16.7976 0.833344 23.0251C0.833344 32.7776 8.27501 39.0834 16.5 39.0834C24.725 39.0834 32.1667 32.7776 32.1667 23.0251C32.1667 16.7976 27.3688 9.47339 17.7925 1.05256ZM8.33376 23.4167C9.05834 23.4167 9.64584 23.9259 9.78293 24.6309C10.5858 28.9784 14.2479 30.4667 16.9113 30.2513C17.7533 30.2121 18.4583 30.878 18.4583 31.7201C18.4583 32.5034 17.8317 33.1496 17.0483 33.1888C12.8771 33.4434 8.00084 31.0542 6.88459 25.1205C6.85056 24.9105 6.86254 24.6957 6.9197 24.4908C6.97685 24.2859 7.07783 24.0959 7.21564 23.9339C7.35345 23.7719 7.52481 23.6417 7.71786 23.5524C7.91091 23.4631 8.12106 23.4168 8.33376 23.4167Z" fill="#5AB951"/>
</svg>
