<svg width="57" height="48" viewBox="0 0 57 48" fill="none" xmlns="http://www.w3.org/2000/svg">
<path d="M53.6667 37.3334C52.9111 37.3334 52.2782 37.0774 51.768 36.5654C51.256 36.0552 51 35.4223 51 34.6667V18.9334L29.6 30.6001C29.2 30.8223 28.7885 30.9885 28.3653 31.0987C27.944 31.2107 27.4889 31.2667 27 31.2667C26.5111 31.2667 26.056 31.2107 25.6347 31.0987C25.2116 30.9885 24.8 30.8223 24.4 30.6001L1.93334 18.3334C1.4889 18.1112 1.1449 17.7885 0.90134 17.3654C0.656007 16.9441 0.53334 16.489 0.53334 16.0001C0.53334 15.5112 0.656007 15.0561 0.90134 14.6347C1.1449 14.2116 1.4889 13.889 1.93334 13.6667L24.4667 1.40007C24.8667 1.17784 25.2773 1.01073 25.6987 0.898731C26.1218 0.788509 26.5556 0.733398 27 0.733398C27.4445 0.733398 27.8782 0.788509 28.3013 0.898731C28.7227 1.01073 29.1333 1.17784 29.5333 1.40007L54.9333 15.2667C55.3778 15.489 55.7227 15.8107 55.968 16.2321C56.2116 16.6552 56.3333 17.1112 56.3333 17.6001V34.6667C56.3333 35.4223 56.0773 36.0552 55.5653 36.5654C55.0551 37.0774 54.4222 37.3334 53.6667 37.3334ZM27 47.2667C26.5556 47.2667 26.1218 47.2116 25.6987 47.1014C25.2773 46.9894 24.8667 46.8223 24.4667 46.6001L11.1333 39.4001C10.2445 38.9112 9.55556 38.2561 9.06667 37.4347C8.57778 36.6116 8.33334 35.689 8.33334 34.6667V24.5334L23.4667 32.7334C24.0445 33.0445 24.6222 33.3218 25.2 33.5654C25.7778 33.8107 26.3778 33.9334 27 33.9334C27.6222 33.9334 28.2338 33.8001 28.8347 33.5334C29.4338 33.2667 30.0222 32.9778 30.6 32.6667L45.6667 24.5334V34.6667C45.6667 35.689 45.4222 36.6116 44.9333 37.4347C44.4444 38.2561 43.7556 38.9112 42.8667 39.4001L29.5333 46.6001C29.1333 46.8223 28.7227 46.9894 28.3013 47.1014C27.8782 47.2116 27.4445 47.2667 27 47.2667Z" fill="#5AB951"/>
</svg>
