<svg width="44" height="44" viewBox="0 0 44 44" fill="none" xmlns="http://www.w3.org/2000/svg">
<path fill-rule="evenodd" clip-rule="evenodd" d="M43.6775 2.01046L42.4849 1.82075L42.1719 0.653499L43.9711 0.170166L43.6787 2.01046H43.6775ZM27.7033 18.7217L26.6751 19.3549L26.6726 19.3525L26.669 19.3464L26.6569 19.3271L26.6158 19.2582C26.582 19.2002 26.5313 19.1156 26.4708 19.0081C26.3015 18.7122 26.1384 18.4129 25.9815 18.1103C25.4848 17.159 25.0513 16.1762 24.6837 15.168C24.2753 14.0273 23.9249 12.7211 23.8705 11.4572C23.8173 10.1981 24.0518 8.8315 24.9894 7.75971C25.8316 6.79787 27.4194 5.91217 29.0881 5.14608C30.8172 4.34979 32.8521 3.58612 34.7793 2.92517C37.1666 2.10987 39.5779 1.36681 42.01 0.696999L42.1308 0.663166L42.1731 0.651082L42.4873 1.81954L43.6799 2.00925L43.6727 2.05396L43.6521 2.18204C43.5315 2.92333 43.405 3.66366 43.2727 4.40296C42.9508 6.22102 42.5996 8.03375 42.2191 9.84046C41.7889 11.8717 41.2886 14.0007 40.7582 15.783C40.5228 16.5982 40.2457 17.4008 39.9281 18.1876C39.6526 18.8522 39.3263 19.4975 38.93 19.9518C38.0817 20.9209 36.761 21.2242 35.6071 21.3015C34.4036 21.3825 33.0696 21.2362 31.8697 21.0236C30.7996 20.8308 29.7398 20.5848 28.6942 20.2865C28.2663 20.166 27.8409 20.0371 27.4182 19.8998L27.3421 19.8732L27.3215 19.866L27.3155 19.8648H27.3131L27.7046 18.7205L27.7033 18.7217ZM27.7033 18.7217L26.6751 19.3549L26.9022 19.7234L27.3131 19.8648L27.7033 18.7217ZM28.5153 17.7152C29.7524 18.1013 31.0118 18.412 32.2866 18.6456C33.4031 18.8425 34.5196 18.9537 35.4451 18.8909C36.4227 18.8256 36.9133 18.5864 37.1102 18.3616C37.2359 18.2166 37.4413 17.8735 37.6951 17.262C37.9804 16.5531 38.2292 15.8299 38.4406 15.0955C38.9445 13.4038 39.429 11.346 39.8543 9.34142C40.2625 7.40195 40.6363 5.45543 40.9757 3.50275L40.6023 3.6115C39.2623 4.00662 37.4522 4.56367 35.5636 5.21133C33.6713 5.86021 31.7223 6.59367 30.0971 7.34163C28.4102 8.11738 27.272 8.82183 26.808 9.35229C26.437 9.77521 26.2461 10.4265 26.286 11.3533C26.3246 12.2752 26.5893 13.3229 26.959 14.3512C27.3823 15.5143 27.9029 16.6396 28.5153 17.7152ZM5.40114 5.05183L5.08818 6.21908L3.89434 6.40879L3.60193 4.56971L5.40235 5.05304L5.40114 5.05183ZM17.1002 19.9542L18.1285 20.5862L18.1309 20.5837L18.1333 20.5789L18.143 20.5632L18.1781 20.5052C18.3603 20.1948 18.5343 19.8798 18.7001 19.5603C19.0191 18.9465 19.4263 18.0898 19.767 17.1424C20.1029 16.2048 20.3953 15.1185 20.4401 14.06C20.486 13.0051 20.2902 11.8282 19.4758 10.8977C18.7556 10.0737 17.4228 9.339 16.0695 8.7155C14.6546 8.06421 12.9931 7.44071 11.4235 6.903C9.47941 6.23903 7.51578 5.63378 5.53526 5.08808L5.43618 5.0615L5.40114 5.05183L5.08818 6.21908L3.89434 6.40879L3.90039 6.44504L3.9173 6.55017L3.98255 6.94408C4.3086 8.89859 4.67561 10.8461 5.08335 12.7852C5.43376 14.4382 5.84218 16.1745 6.27476 17.6306C6.49226 18.358 6.71943 19.0359 6.95747 19.6074C7.18343 20.1512 7.46014 20.7058 7.80814 21.1021C8.5573 21.96 9.70885 22.2138 10.6622 22.2766C11.6676 22.3443 12.7708 22.2222 13.7556 22.0495C14.992 21.8275 16.2114 21.519 17.4047 21.1263L17.4663 21.1058L17.4845 21.0997L17.4905 21.0973L17.1002 19.9542ZM17.1002 19.9542L18.1285 20.5862L17.9013 20.9559L17.4905 21.0973L17.1002 19.9542ZM16.287 18.9465C16.7592 18.1075 17.1621 17.2313 17.4917 16.3268C17.7878 15.5015 17.9956 14.6738 18.0258 13.956C18.0572 13.2335 17.905 12.7719 17.6573 12.4879C17.3153 12.0988 16.4332 11.543 15.0593 10.911C13.7495 10.3081 12.1738 9.71479 10.6393 9.18917C9.30244 8.7328 7.95605 8.30495 6.60101 7.90592L6.60585 7.93612C6.81126 9.09612 7.10368 10.6621 7.44805 12.2849C7.79243 13.9113 8.18514 15.5752 8.59114 16.9418C8.79535 17.6257 8.99593 18.2166 9.18926 18.6806C9.39468 19.1724 9.54935 19.4225 9.62668 19.512C9.72576 19.6243 10.046 19.814 10.8241 19.866C11.5503 19.9143 12.4373 19.8273 13.3363 19.669C14.3339 19.4892 15.3194 19.2475 16.287 18.9452V18.9465ZM13.6408 30.4667C13.3338 30.4836 13.184 30.5271 13.1453 30.544C12.598 30.7917 10.9353 31.3717 9.4998 31.8611C8.76272 32.1137 8.05585 32.3505 7.53385 32.5257L7.50001 32.5378V39.0664C7.71268 39.0568 7.94105 39.0483 8.17426 39.0398C9.17476 39.0036 10.365 38.9673 10.8809 38.9891C13.0463 39.0749 14.6727 39.5872 16.1783 40.0621L16.2109 40.073C17.6222 40.5176 18.9296 40.926 20.6418 41.0553C21.1252 41.0916 21.5952 41.1387 22.0338 41.1822H22.0399C23.7243 41.3514 24.8336 41.436 25.6927 41.1242C26.3609 40.8813 28.8078 39.7467 31.2752 38.5057C32.4956 37.8919 33.6918 37.2672 34.6428 36.7319C35.1201 36.4637 35.5249 36.2244 35.8354 36.0238C35.9901 35.9235 36.1133 35.839 36.2076 35.7701C36.2446 35.7429 36.2809 35.7147 36.3163 35.6855L36.3502 35.6565C36.471 35.5345 36.5991 35.1091 36.3913 34.7092C36.2935 34.5221 36.1318 34.3764 35.9357 34.2983C35.6941 34.1932 35.2832 34.1122 34.6307 34.2198C33.159 34.4615 31.4008 35.1695 29.6451 35.8837L29.621 35.8945C28.7582 36.245 27.8931 36.5966 27.1258 36.8527C26.3887 37.098 25.5706 37.318 24.8577 37.2757C23.879 37.2152 22.1619 36.9615 20.7458 36.7319C19.9319 36.6003 19.1191 36.4626 18.3073 36.3187L18.1503 36.2909L18.0947 36.28L18.3243 33.8827L23.8463 33.9491H23.8584C23.9229 33.9421 23.9868 33.93 24.0493 33.9129C24.2403 33.8645 24.5677 33.7449 24.9798 33.4537C25.1066 33.3631 25.2734 33.1963 25.4293 32.9728C25.4896 32.8852 25.5445 32.794 25.5936 32.6997C24.9203 32.6569 24.2514 32.5623 23.5926 32.417C23.2339 32.3389 22.878 32.2482 22.5256 32.1451L22.4846 32.133L15.7215 30.6274L15.6575 30.6165C15.2974 30.5568 14.935 30.5124 14.5712 30.4836C14.2617 30.458 13.9509 30.4523 13.6408 30.4667ZM15.9583 29.4433L16.1771 28.2555L16.1988 28.2591L23.1081 29.7961L23.1588 29.8118L23.1685 29.8154L23.2144 29.8287L23.4053 29.8831C23.5733 29.929 23.8149 29.9918 24.1025 30.0547C24.6898 30.1815 25.4244 30.2987 26.1035 30.2987C26.7838 30.2987 27.5233 30.5525 27.9221 31.2751C28.2628 31.8938 28.1782 32.5632 28.0586 33.0054C27.9476 33.3964 27.782 33.7698 27.5668 34.1147C27.9341 33.9697 28.3244 33.8126 28.7341 33.6458L28.809 33.6144C30.4741 32.9377 32.4702 32.1257 34.238 31.8345C36.2922 31.4986 37.8328 32.2357 38.5373 33.5987C39.1583 34.801 39.0206 36.3863 38.0721 37.3506C37.834 37.5922 37.48 37.8375 37.1416 38.0562C36.7108 38.329 36.2724 38.5897 35.827 38.838C34.8301 39.3987 33.5964 40.0428 32.3591 40.665C29.9158 41.8939 27.3421 43.0962 26.5156 43.3959C25.0825 43.9155 23.4246 43.7499 21.9517 43.6025L21.7982 43.5868C21.3524 43.5411 20.9061 43.5008 20.4594 43.466C18.4536 43.3137 16.9166 42.8292 15.5125 42.3869L15.4823 42.3773C13.9718 41.9012 12.6113 41.477 10.7843 41.4033C10.3831 41.3876 9.30285 41.4166 8.26126 41.4553C7.67472 41.4766 7.08827 41.5003 6.50193 41.5266L6.34605 41.5338L5.08214 41.5918V30.7942L6.14185 30.4425C7.00172 30.1568 7.86045 29.8676 8.71801 29.575C10.2212 29.0614 11.7364 28.5285 12.1497 28.3425C12.5931 28.1419 13.097 28.0766 13.5006 28.0525C13.9296 28.0283 14.3706 28.0464 14.7561 28.0754C15.22 28.1117 15.6821 28.1694 16.1408 28.2482L16.1662 28.253H16.1734L16.1758 28.2543H16.1783L15.9583 29.4433Z" fill="#5AB951"/>
<path fill-rule="evenodd" clip-rule="evenodd" d="M35.4729 8.99815C35.5935 9.10129 35.6926 9.22718 35.7646 9.36862C35.8365 9.51006 35.8799 9.66429 35.8922 9.8225C35.9046 9.98071 35.8856 10.1398 35.8365 10.2907C35.7874 10.4416 35.709 10.5813 35.6058 10.7019C32.0038 14.9045 27.5196 21.0634 25.5404 26.0695C25.482 26.2171 25.3951 26.3517 25.2847 26.4657C25.1743 26.5797 25.0425 26.6708 24.8968 26.7339C24.7512 26.7969 24.5946 26.8307 24.4359 26.8332C24.2772 26.8357 24.1196 26.807 23.972 26.7486C23.8244 26.6902 23.6898 26.6033 23.5758 26.4929C23.4618 26.3824 23.3707 26.2506 23.3076 26.105C23.2446 25.9594 23.2108 25.8027 23.2083 25.644C23.2057 25.4854 23.2345 25.3277 23.2929 25.1802C25.4232 19.7922 30.1212 13.3868 33.7691 9.12986C33.9778 8.88664 34.2745 8.73626 34.594 8.71178C34.9135 8.68731 35.2297 8.79075 35.4729 8.99936V8.99815ZM11.5841 12.8745C11.4595 12.9728 11.3555 13.0948 11.2781 13.2333C11.2006 13.3719 11.1512 13.5244 11.1327 13.682C11.1142 13.8397 11.1269 13.9995 11.1702 14.1522C11.2134 14.3049 11.2863 14.4477 11.3848 14.5722C14.0939 18.0099 17.0519 22.4094 18.4559 26.0586C18.5765 26.3499 18.8061 26.5825 19.0957 26.7068C19.3854 26.8312 19.7122 26.8374 20.0064 26.7242C20.3005 26.611 20.5389 26.3874 20.6704 26.1009C20.802 25.8145 20.8165 25.488 20.7107 25.191C19.1749 21.1987 16.0369 16.5696 13.2819 13.0763C13.0836 12.8246 12.7935 12.662 12.4754 12.6241C12.1573 12.5863 11.8371 12.6763 11.5854 12.8745H11.5841Z" fill="#5AB951"/>
<path d="M0.25 28.0415H7.5V43.7498H0.25V28.0415Z" fill="#5AB951"/>
</svg>
