<svg width="70" height="70" viewBox="0 0 70 70" fill="none" xmlns="http://www.w3.org/2000/svg">
<g clip-path="url(#clip0_208_1643)">
<path d="M48.2387 34.2356L48.2051 34.3238C48.2156 34.2972 48.224 34.2699 48.2345 34.2433L48.2387 34.2356Z" fill="#59BA51"/>
<path d="M35.0014 0C23.4668 0 14 9.436 14 20.9454C14 25.4058 15.428 29.5624 17.836 32.9672L17.7499 32.8328L31.1941 56.0714L31.262 56.1603C31.8038 56.8673 32.34 57.4371 32.9889 57.8662C33.6378 58.2953 34.4687 58.5662 35.2849 58.4843C36.9159 58.3205 37.8637 57.1935 38.7394 56.0063L38.794 55.9328L53.6158 30.709L53.6277 30.688C53.9826 30.0475 54.2395 29.4014 54.4593 28.7756C55.4758 26.2901 55.9991 23.6307 56 20.9454C56 9.436 46.536 0 35.0014 0ZM35.0014 3.5C44.6292 3.5 52.5 11.3526 52.5 20.9454C52.5006 23.186 52.0631 25.4051 51.212 27.4778L51.1945 27.5212L51.1791 27.5667C50.995 28.0966 50.7948 28.5775 50.5638 28.9947L35.8925 53.9609C35.2436 54.8156 34.79 55.0179 34.9356 55.0025C35.0105 54.9955 35.0798 55.0543 34.9195 54.9479C34.7662 54.8464 34.4533 54.5489 34.0823 54.0757L20.741 31.01L20.6941 30.9449C18.683 28.1029 17.5 24.661 17.5 20.9454C17.5 11.3533 25.3736 3.5 35.0014 3.5ZM35.0014 8.995C28.378 8.995 23.0209 14.3332 23.0209 20.9454C23.0209 27.5576 28.3787 32.8958 35.0014 32.8958C41.6241 32.8958 46.9791 27.5569 46.9791 20.9454C46.9791 14.3332 41.6241 8.995 35.0014 8.995ZM35.0014 12.495C39.7733 12.495 43.4791 16.1945 43.4791 20.9454C43.4791 25.6963 39.774 29.3958 35.0014 29.3958C30.2288 29.3958 26.5209 25.6956 26.5209 20.9454C26.5209 16.1945 30.2295 12.495 35.0014 12.495Z" fill="#59BA51"/>
<path d="M23.8042 48.3398C13.916 49.737 7 53.0795 7 57.9998C7 64.6274 18.5556 69.9999 35 69.9999C51.4444 69.9999 63 64.6274 63 57.9998C63 53.0795 56.0847 49.737 46.1972 48.3398L44.8273 50.6722C52.2795 51.7061 57.4 53.8789 57.4 56.4003C57.4 59.9353 47.3711 62.8004 35 62.8004C22.6289 62.8004 12.6 59.9353 12.6 56.4003C12.5993 53.8873 17.6862 51.7166 25.1615 50.6785C24.71 49.8987 24.2557 49.1203 23.8035 48.3398H23.8042Z" fill="#59BA51"/>
</g>
<defs>
<clipPath id="clip0_208_1643">
<rect width="70" height="70" fill="white"/>
</clipPath>
</defs>
</svg>
