<svg width="70" height="70" viewBox="0 0 70 70" fill="none" xmlns="http://www.w3.org/2000/svg">
<path d="M35 13.125C29.1984 13.125 23.6344 15.4297 19.532 19.532C15.4297 23.6344 13.125 29.1984 13.125 35V39.375H17.5C18.6603 39.375 19.7731 39.8359 20.5936 40.6564C21.4141 41.4769 21.875 42.5897 21.875 43.75V56.875C21.875 58.0353 21.4141 59.1481 20.5936 59.9686C19.7731 60.7891 18.6603 61.25 17.5 61.25H13.125C11.9647 61.25 10.8519 60.7891 10.0314 59.9686C9.21094 59.1481 8.75 58.0353 8.75 56.875V35C8.75 31.5528 9.42898 28.1394 10.7482 24.9546C12.0673 21.7698 14.0009 18.876 16.4384 16.4384C18.876 14.0009 21.7698 12.0673 24.9546 10.7482C28.1394 9.42898 31.5528 8.75 35 8.75C38.4472 8.75 41.8606 9.42898 45.0454 10.7482C48.2302 12.0673 51.124 14.0009 53.5616 16.4384C55.9991 18.876 57.9327 21.7698 59.2518 24.9546C60.571 28.1394 61.25 31.5528 61.25 35V56.875C61.25 58.0353 60.7891 59.1481 59.9686 59.9686C59.1481 60.7891 58.0353 61.25 56.875 61.25H52.5C51.3397 61.25 50.2269 60.7891 49.4064 59.9686C48.5859 59.1481 48.125 58.0353 48.125 56.875V43.75C48.125 42.5897 48.5859 41.4769 49.4064 40.6564C50.2269 39.8359 51.3397 39.375 52.5 39.375H56.875V35C56.875 29.1984 54.5703 23.6344 50.468 19.532C46.3656 15.4297 40.8016 13.125 35 13.125Z" fill="#59BA51"/>
</svg>
